<svg width="189" height="196" viewBox="0 0 189 196" fill="none" xmlns="http://www.w3.org/2000/svg">
<g clip-path="url(#clip0)">
<path d="M110.358 191.289C105.405 197.535 95.3615 194.113 95.2421 186.138L93.4969 69.489H171.829C186.017 69.489 193.93 85.8976 185.108 97.0238L110.358 191.289Z" fill="url(#paint0_linear)"/>
<path d="M110.358 191.289C105.405 197.535 95.3615 194.113 95.2421 186.138L93.4969 69.489H171.829C186.017 69.489 193.93 85.8976 185.108 97.0238L110.358 191.289Z" fill="url(#paint1_linear)" fill-opacity="0.2"/>
<path d="M78.501 3.59227C83.4544 -2.65441 93.4981 0.768317 93.6174 8.74372L94.3822 125.392H17.0301C2.84158 125.392 -5.07163 108.983 3.75123 97.8569L78.501 3.59227Z" fill="#3ECF8E"/>
</g>
<path d="M27.6367 112.062H21.7529C21.6553 113.137 21.4437 114.089 21.1182 114.919C20.7926 115.749 20.3613 116.441 19.8242 116.994C19.2708 117.564 18.6035 117.995 17.8223 118.288C17.041 118.581 16.1458 118.728 15.1367 118.728C14.2904 118.728 13.5335 118.614 12.8662 118.386C12.2152 118.142 11.6374 117.792 11.1328 117.336C10.6445 116.913 10.2214 116.408 9.86328 115.822C9.52148 115.236 9.23665 114.585 9.00879 113.869C8.71582 113.007 8.49609 112.054 8.34961 111.013C8.2194 109.971 8.1543 108.856 8.1543 107.668V102.761C8.1543 101.8 8.20312 100.865 8.30078 99.9531C8.41471 99.0254 8.57747 98.1546 8.78906 97.3408C9.06576 96.4131 9.41569 95.5749 9.83887 94.8262C10.2783 94.0612 10.8154 93.4346 11.4502 92.9463C11.9385 92.5719 12.4837 92.279 13.0859 92.0674C13.7044 91.8558 14.3962 91.75 15.1611 91.75C16.2516 91.75 17.1875 91.9128 17.9688 92.2383C18.75 92.5475 19.4092 93.0033 19.9463 93.6055C20.4671 94.2077 20.874 94.9401 21.167 95.8027C21.4762 96.6491 21.6797 97.6012 21.7773 98.6592H27.6367C27.4577 96.8851 27.0589 95.2738 26.4404 93.8252C25.8382 92.3766 25.0081 91.1396 23.9502 90.1143C22.9085 89.1051 21.6471 88.3239 20.166 87.7705C18.7012 87.2171 17.0329 86.9404 15.1611 86.9404C13.7777 86.9404 12.5 87.1276 11.3281 87.502C10.1725 87.8763 9.11458 88.3971 8.1543 89.0645C7.14518 89.7969 6.25 90.6839 5.46875 91.7256C4.70378 92.751 4.07715 93.8984 3.58887 95.168C3.13314 96.3073 2.79134 97.5199 2.56348 98.8057C2.33561 100.091 2.22168 101.426 2.22168 102.81V107.668C2.22168 109.117 2.34375 110.508 2.58789 111.843C2.83203 113.177 3.18197 114.414 3.6377 115.554C4.1097 116.709 4.6875 117.775 5.37109 118.752C6.07096 119.712 6.88477 120.534 7.8125 121.218C8.77279 121.95 9.86328 122.52 11.084 122.927C12.321 123.317 13.6719 123.513 15.1367 123.513C16.9271 123.513 18.5547 123.244 20.0195 122.707C21.5007 122.154 22.7783 121.372 23.8525 120.363C24.9105 119.37 25.765 118.174 26.416 116.774C27.0671 115.358 27.474 113.788 27.6367 112.062ZM40.0635 118.166V87.4531H34.1797V123H57.0312V118.166H40.0635ZM86.6455 109.45V101.027C86.6455 98.7487 86.377 96.7386 85.8398 94.9971C85.3027 93.2393 84.5459 91.7581 83.5693 90.5537C82.5602 89.3656 81.3395 88.4704 79.9072 87.8682C78.4912 87.2497 76.8799 86.9404 75.0732 86.9404C73.2829 86.9404 71.6715 87.2497 70.2393 87.8682C68.8232 88.4704 67.6188 89.3656 66.626 90.5537C65.6331 91.7581 64.8682 93.2393 64.3311 94.9971C63.8102 96.7386 63.5498 98.7487 63.5498 101.027V109.45C63.5498 111.729 63.8102 113.747 64.3311 115.505C64.8682 117.246 65.6413 118.711 66.6504 119.899C67.6432 121.088 68.8558 121.991 70.2881 122.609C71.7204 123.212 73.3317 123.513 75.1221 123.513C76.9287 123.513 78.54 123.212 79.9561 122.609C81.3883 121.991 82.5928 121.088 83.5693 119.899C84.5622 118.711 85.319 117.246 85.8398 115.505C86.377 113.747 86.6455 111.729 86.6455 109.45ZM69.4092 107.375C69.4092 106.903 69.4092 106.504 69.4092 106.179C69.4092 105.853 69.4092 105.381 69.4092 104.763V99.9775C69.4092 98.5127 69.5394 97.2432 69.7998 96.1689C70.0602 95.0785 70.459 94.1914 70.9961 93.5078C71.4518 92.9056 72.0215 92.4499 72.7051 92.1406C73.3887 91.8314 74.1781 91.6768 75.0732 91.6768C75.9196 91.6768 76.6683 91.807 77.3193 92.0674C77.9704 92.3278 78.5238 92.7184 78.9795 93.2393C79.5003 93.8252 79.8991 94.582 80.1758 95.5098C80.4688 96.4375 80.6478 97.5361 80.7129 98.8057L69.4092 107.375ZM80.7617 110.427C80.7617 111.924 80.6315 113.226 80.3711 114.333C80.1107 115.44 79.7038 116.335 79.1504 117.019C78.6784 117.604 78.1087 118.052 77.4414 118.361C76.7741 118.654 76.001 118.801 75.1221 118.801C74.2269 118.801 73.4375 118.646 72.7539 118.337C72.0866 118.028 71.5251 117.564 71.0693 116.945C70.6136 116.376 70.2474 115.66 69.9707 114.797C69.7103 113.934 69.5394 112.941 69.458 111.818L80.7617 103.298C80.7617 103.77 80.7617 104.226 80.7617 104.665C80.7617 105.088 80.7617 105.511 80.7617 105.935V110.427ZM116.675 123V87.4531H110.767L110.718 111.818L99.2432 87.4531H93.2861V123H99.2188L99.2432 98.5371L110.791 123H116.675ZM144.653 107.058V102.321H129.956V92.3115H146.997V87.4531H124.072V123H147.119V118.166H129.956V107.058H144.653ZM176.147 127.614V123H153.833V127.614H176.147Z" fill="white"/>
<defs>
<linearGradient id="paint0_linear" x1="93.4969" y1="95.3528" x2="163.143" y2="124.524" gradientUnits="userSpaceOnUse">
<stop stop-color="#249361"/>
<stop offset="1" stop-color="#3ECF8E"/>
</linearGradient>
<linearGradient id="paint1_linear" x1="62.6314" y1="53.0378" x2="94.4457" y2="112.849" gradientUnits="userSpaceOnUse">
<stop/>
<stop offset="1" stop-opacity="0"/>
</linearGradient>
<clipPath id="clip0">
<rect width="188.817" height="196" fill="white"/>
</clipPath>
</defs>
</svg>
